<svg width="24" height="24" viewBox="0 0 24 24" fill="none" xmlns="http://www.w3.org/2000/svg">
<path fill-rule="evenodd" clip-rule="evenodd" d="M10.9058 2.00305C11.2306 2.00254 11.593 2.00305 12.0001 2.00305C15.2571 2.00305 15.6431 2.01474 16.9293 2.0732C18.1186 2.12759 18.7641 2.32635 19.1941 2.49334C19.7634 2.71446 20.1692 2.97879 20.5959 3.40579C21.0229 3.83279 21.2872 4.23945 21.5088 4.80878C21.6757 5.23832 21.8747 5.8839 21.9288 7.07339C21.9873 8.35947 22 8.7458 22 12.0017C22 15.2575 21.9873 15.6438 21.9288 16.9299C21.8745 18.1194 21.6757 18.765 21.5088 19.1945C21.2877 19.7639 21.0229 20.1692 20.5959 20.596C20.169 21.023 19.7636 21.2873 19.1941 21.5084C18.7646 21.6762 18.1186 21.8744 16.9293 21.9288C15.6434 21.9873 15.2571 22 12.0001 22C8.74291 22 8.35688 21.9873 7.07097 21.9288C5.88163 21.8739 5.23613 21.6752 4.80588 21.5082C4.23662 21.2871 3.83001 21.0227 3.40307 20.5957C2.97612 20.1687 2.71183 19.7631 2.49022 19.1935C2.32326 18.764 2.12427 18.1184 2.07014 16.9289C2.01169 15.6428 2 15.2565 2 11.9986C2 8.74071 2.01169 8.35642 2.07014 7.07034C2.12453 5.88085 2.32326 5.23527 2.49022 4.80522C2.71132 4.23589 2.97612 3.82923 3.40307 3.40223C3.83001 2.97523 4.23662 2.7109 4.80588 2.48927C5.23587 2.32152 5.88163 2.12327 7.07097 2.06862C8.19627 2.01779 8.63236 2.00254 10.9058 2V2.00305ZM18.5115 4.02875C17.7034 4.02875 17.0477 4.68373 17.0477 5.49223C17.0477 6.30047 17.7034 6.95622 18.5115 6.95622C19.3197 6.95622 19.9753 6.30047 19.9753 5.49223C19.9753 4.68398 19.3197 4.02875 18.5115 4.02875ZM12.0001 5.73928C8.54062 5.73928 5.73575 8.5445 5.73575 12.0044C5.73575 15.4644 8.54062 18.2683 12.0001 18.2683C15.4596 18.2683 18.2635 15.4644 18.2635 12.0044C18.2635 8.5445 15.4596 5.73928 12.0001 5.73928Z" fill="white"/>
<path fill-rule="evenodd" clip-rule="evenodd" d="M12.0001 7.93781C14.2456 7.93781 16.0663 9.75839 16.0663 12.0044C16.0663 14.2503 14.2456 16.0711 12.0001 16.0711C9.75436 16.0711 7.934 14.2503 7.934 12.0044C7.934 9.75839 9.75436 7.93781 12.0001 7.93781Z" fill="white"/>
</svg>
