<svg width="24" height="24" viewBox="0 0 24 24" fill="none" xmlns="http://www.w3.org/2000/svg">
<path d="M11.999 1.49976C9.81178 1.50235 7.71487 2.37238 6.16826 3.91899C4.62165 5.4656 3.75162 7.56252 3.74902 9.74976C3.74902 16.8088 11.249 22.1409 11.5684 22.3643C11.6947 22.4525 11.845 22.4998 11.999 22.4998C12.1531 22.4998 12.3034 22.4525 12.4297 22.3643C12.749 22.1409 20.249 16.8088 20.249 9.74976C20.2464 7.56252 19.3764 5.4656 17.8298 3.91899C16.2832 2.37238 14.1863 1.50235 11.999 1.49976ZM11.9996 6.75003C12.5929 6.75003 13.1729 6.92597 13.6663 7.25562C14.1596 7.58526 14.5441 8.0538 14.7712 8.60198C14.9983 9.15016 15.0577 9.75336 14.9419 10.3353C14.8262 10.9172 14.5405 11.4518 14.1209 11.8713C13.7013 12.2909 13.1668 12.5766 12.5848 12.6924C12.0029 12.8081 11.3997 12.7487 10.8515 12.5217C10.3033 12.2946 9.83481 11.9101 9.50516 11.4167C9.17552 10.9234 8.99957 10.3434 8.99957 9.75003C8.99956 9.35606 9.07715 8.96595 9.22791 8.60196C9.37867 8.23798 9.59965 7.90726 9.87823 7.62868C10.1568 7.3501 10.4875 7.12913 10.8515 6.97837C11.2155 6.82761 11.6056 6.75002 11.9996 6.75003Z" fill="white"/>
</svg>
