<svg width="24" height="25" viewBox="0 0 24 25" fill="none" xmlns="http://www.w3.org/2000/svg">
<path d="M19.2228 15.2455L15.4696 13.637C15.2736 13.5527 15.0596 13.5187 14.8472 13.5382C14.6347 13.5577 14.4306 13.6301 14.2533 13.7488L12.2465 15.0864C11.0201 14.4899 10.0274 13.5016 9.42548 12.2778L9.42563 12.2777L10.7586 10.2409C10.8746 10.0641 10.945 9.86126 10.9635 9.65057C10.982 9.43989 10.9479 9.22791 10.8644 9.03361L9.25442 5.27721C9.14482 5.02223 8.95559 4.8096 8.71503 4.67117C8.47448 4.53274 8.19556 4.47595 7.92004 4.50931C6.83735 4.64852 5.84237 5.17712 5.12098 5.99637C4.39958 6.81562 4.00111 7.86947 4 8.96107C4 15.3237 9.17632 20.5 15.539 20.5C16.6306 20.4989 17.6844 20.1004 18.5037 19.379C19.3229 18.6576 19.8515 17.6626 19.9907 16.5799C20.024 16.3044 19.9672 16.0255 19.8287 15.7849C19.6903 15.5444 19.4777 15.3552 19.2228 15.2455Z" fill="white"/>
</svg>
